<svg height="512" viewBox="0 0 512 512" width="512" xmlns="http://www.w3.org/2000/svg"><g><g><g><path d="m496 104v332a19.994 19.994 0 0 1 -20 20h-440a19.994 19.994 0 0 1 -20-20v-332z" fill="#78b9eb"/><path d="m496 76v28h-480v-28a19.994 19.994 0 0 1 20-20h440a19.994 19.994 0 0 1 20 20z" fill="#e0e0e2"/></g><rect fill="#ffda44" height="288" rx="20" width="352" x="80" y="136"/></g><g><path d="m476 48h-440a28.031 28.031 0 0 0 -28 28v360a28.031 28.031 0 0 0 28 28h440a28.031 28.031 0 0 0 28-28v-360a28.031 28.031 0 0 0 -28-28zm12 388a12.01 12.01 0 0 1 -12 12h-440a12.01 12.01 0 0 1 -12-12v-324h464zm0-340h-464v-20a12.01 12.01 0 0 1 12-12h440a12.01 12.01 0 0 1 12 12z"/><path d="m40 88h8a8 8 0 0 0 0-16h-8a8 8 0 0 0 0 16z"/><path d="m72 88h8a8 8 0 0 0 0-16h-8a8 8 0 0 0 0 16z"/><path d="m104 88h8a8 8 0 0 0 0-16h-8a8 8 0 0 0 0 16z"/><path d="m412 128h-312a28.032 28.032 0 0 0 -28 28v248a28.032 28.032 0 0 0 28 28h312a28.032 28.032 0 0 0 28-28v-248a28.032 28.032 0 0 0 -28-28zm12 276a12.013 12.013 0 0 1 -12 12h-312a12.013 12.013 0 0 1 -12-12v-248a12.013 12.013 0 0 1 12-12h312a12.013 12.013 0 0 1 12 12z"/><path d="m283.578 224.845a8 8 0 0 0 -10.733 3.577l-48 96a8 8 0 1 0 14.31 7.156l48-96a8 8 0 0 0 -3.577-10.733z"/><path d="m310.146 226.879a8 8 0 1 0 -12.292 10.242l35.732 42.879-35.732 42.879a8 8 0 1 0 12.292 10.242l40-48a8 8 0 0 0 0-10.242z"/><path d="m213.121 225.854a8 8 0 0 0 -11.267 1.025l-40 48a8 8 0 0 0 0 10.242l40 48a8 8 0 0 0 12.292-10.242l-35.732-42.879 35.732-42.879a8 8 0 0 0 -1.025-11.267z"/></g></g></svg>